<svg xmlns="http://www.w3.org/2000/svg"><defs> <rect id="svgstore57f40b4a92ca150041fd246ae235e0b4SVGID_1_" width="66.5" height="66.5"/>  <rect id="svgstore37961ae0879736c5a1a32e8a998fcf19SVGID_1_" width="66.5" height="46.5"/>  <rect id="svgstore20aaf9db9cc2e8a7fd688eada83df69cSVGID_1_" y="0" width="65.8" height="61.5"/> </defs><symbol viewBox="0 0 32 32" id="icon-bars"><title>bars</title> <path d="M0 26h32v4h-32zM4 18h4v6h-4zM10 10h4v14h-4zM16 16h4v8h-4zM22 4h4v20h-4z"/> </symbol><symbol viewBox="0 0 864 864" id="icon-check-circled"><title>check-circled</title> <g> <path d="M432,786.2c-195.3,0-354.2-159-354.2-354.2S236.7,77.8,432,77.8s354.2,159,354.2,354.2S627.3,786.2,432,786.2z M432,138.2
		c-161.6,0-293.8,132.2-293.8,293.8S270.4,725.8,432,725.8S725.8,593.6,725.8,432S593.6,138.2,432,138.2z"/> </g> <path d="M601.4,319.7c-14.3-14.3-38.1-14.3-52.3,0L402.5,465.3l-69.4-69.4c-14.3-14.3-38.1-14.3-52.3,0c-14.3,14.3-14.3,38.1,0,52.3
	l96.1,96.1l0,0c6.7,7.6,16.2,11.4,25.7,11.4l0,0l0,0c9.5,0,19-3.8,26.6-10.5l0,0L601.4,373C615.6,357.8,615.6,334,601.4,319.7z"/> </symbol><symbol viewBox="0 0 66.5 66.5" id="icon-clock"><title>clock</title> <g>  <path clip-path="url(#svgstore57f40b4a92ca150041fd246ae235e0b4SVGID_1_)" fill="#FFFFFF" d="M56.8,9.7C50.5,3.5,42.1,0,33.3,0C24.4,0,16,3.5,9.7,9.7C3.5,16,0,24.4,0,33.3
		s3.5,17.2,9.7,23.5c6.3,6.3,14.6,9.7,23.5,9.7c8.9,0,17.2-3.5,23.5-9.7c6.3-6.3,9.7-14.6,9.7-23.5S63,16,56.8,9.7 M53.6,53.6
		c-4.9,4.9-11.2,7.8-18.1,8.3v-2.7c0-1.2-1-2.2-2.2-2.2C32,57,31,58,31,59.3v2.7c-6.8-0.5-13.2-3.4-18.1-8.3S5.1,42.3,4.6,35.5h2.7
		c1.2,0,2.2-1,2.2-2.2c0-1.2-1-2.2-2.2-2.2H4.6c0.5-6.8,3.4-13.2,8.3-18.1C17.8,8,24.2,5.1,31,4.6v2.7c0,1.2,1,2.2,2.2,2.2
		c1.2,0,2.2-1,2.2-2.2V4.6c6.8,0.5,13.2,3.4,18.1,8.3c4.9,4.9,7.8,11.2,8.3,18.1h-2.7C58,31,57,32,57,33.3c0,1.2,1,2.2,2.2,2.2h2.7
		C61.4,42.3,58.5,48.7,53.6,53.6 M43.8,40.7c0.9,0.9,0.9,2.3,0,3.2c-0.4,0.4-1,0.7-1.6,0.7s-1.2-0.2-1.6-0.7l-9-9
		c-0.4-0.4-0.7-1-0.7-1.6v-19c0-1.2,1-2.2,2.2-2.2c1.2,0,2.2,1,2.2,2.2v18.1L43.8,40.7z"/> </g> </symbol><symbol viewBox="0 0 50 50" id="icon-coffee"><title>coffee</title> <g id="svgstoreb312e34f280c4d1a9377b337a309f4bacoffee"> <path d="M39.7,22.8h-0.6v-2.3h-27v10.9c0,3.6,1.4,7,4,9.5c2.5,2.5,5.9,3.9,9.5,3.9c6.6,0,12.2-4.7,13.3-11.1h0.8
		c3,0,5.5-2.5,5.5-5.5C45.2,25.3,42.7,22.8,39.7,22.8z M36.9,31.4c0,0.4,0,0.8-0.1,1.2c-0.6,5.8-5.4,10.1-11.3,10.1
		c-3,0-5.9-1.2-8-3.3c-2.2-2.1-3.3-5-3.3-8v-8.8h22.7V31.4z M39.7,31.7h-0.6c0-0.1,0-0.2,0-0.2v-6.5h0.6c1.8,0,3.4,1.5,3.4,3.4
		S41.6,31.7,39.7,31.7z"/> <path d="M19.3,17.9c0.2,0.1,0.4,0.2,0.6,0.2c0.3,0,0.7-0.2,0.9-0.4c0.3-0.5,0.2-1.1-0.2-1.5c-0.4-0.3-0.7-0.7-0.7-0.8
		c0,0,0.1-0.1,0.2-0.2c0.9-0.6,1.4-1.3,1.5-2.1c0.2-1-0.3-1.7-0.4-1.9c-0.3-0.5-1-0.6-1.5-0.2c-0.5,0.4-0.6,1-0.2,1.5
		c0,0,0.1,0.1,0,0.3c0,0.2-0.3,0.5-0.6,0.7c-1,0.7-1.2,1.4-1.2,2C17.7,16.7,19,17.7,19.3,17.9z"/> <path d="M25.7,17.9c0.2,0.1,0.4,0.2,0.6,0.2c0.3,0,0.7-0.2,0.9-0.4c0.3-0.5,0.2-1.1-0.2-1.5c-0.5-0.3-1.8-1.6-1.8-2.6
		c0-0.2,0-0.7,1-1.4c1.5-1.1,2.4-2.3,2.7-3.6c0.3-1.7-0.6-2.9-0.6-3c-0.3-0.5-1-0.6-1.5-0.2c-0.5,0.3-0.6,1-0.3,1.5
		c0.2,0.3,1.1,1.9-1.5,3.6c-1.6,1.1-1.9,2.3-1.9,3.1C23,15.9,25.4,17.7,25.7,17.9z"/> <path d="M30.3,17.9c0.2,0.1,0.4,0.2,0.6,0.2c0.3,0,0.7-0.2,0.9-0.4c0.3-0.5,0.2-1.1-0.2-1.5C31.3,16,31,15.6,31,15.5
		c0,0,0-0.1,0.2-0.2c0.8-0.6,1.3-1.2,1.4-2c0.2-1-0.3-1.6-0.4-1.8c-0.4-0.5-1-0.5-1.5-0.2c-0.5,0.4-0.6,1.1-0.2,1.6
		c0,0.1-0.1,0.3-0.5,0.6c-0.9,0.6-1.1,1.4-1.1,1.9C28.8,16.8,30,17.7,30.3,17.9z"/> </g> </symbol><symbol id="icon-defs"><title>defs</title></symbol><symbol viewBox="0 0 600 600" id="icon-down-arrow"><title>down-arrow</title> <polygon points="529.1,196.8 506.5,174.1 300,380.6 93.5,174.1 70.9,196.8 300,425.9 "/> </symbol><symbol viewBox="0 0 95.3 99.9" id="icon-email"><title>email</title> <path fill="#989898" d="M4.6,9.2c0-3.1,2.5-5.6,5.6-5.6h66.7c3.1,0,5.6,2.5,5.6,5.6v81.5c0,3.1-2.5,5.6-5.6,5.6H10.1
	c-3.1,0-5.6-2.5-5.6-5.6V9.2z M0.9,90.7c0,5.1,4.2,9.3,9.3,9.3h66.7c5.1,0,9.3-4.2,9.3-9.3v-5.6h3.7c3.1,0,5.6-2.5,5.6-5.6V64.7
	c0-1.4-0.6-2.7-1.4-3.7c0.9-1,1.4-2.3,1.4-3.7V42.5c0-1.4-0.6-2.7-1.4-3.7c0.9-1,1.4-2.3,1.4-3.7V20.3c0-3.1-2.5-5.6-5.6-5.6h-3.7
	V9.2c0-5.1-4.2-9.3-9.3-9.3H10.1C5-0.1,0.9,4.1,0.9,9.2V90.7z M89.8,18.4c1,0,1.9,0.8,1.9,1.9v14.8c0,1-0.8,1.9-1.9,1.9h-3.7V18.4
	H89.8z M91.6,42.5v14.8c0,1-0.8,1.9-1.9,1.9h-3.7V40.7h3.7C90.8,40.7,91.6,41.5,91.6,42.5z M91.6,79.5c0,1-0.8,1.9-1.9,1.9h-3.7
	V62.9h3.7c1,0,1.9,0.8,1.9,1.9V79.5z M48.7,38.8c-3.2-0.9-10.3-1-13.9,5.1c-2,3.4-2.5,6.9-1.6,9.8c0.8,2.3,2.4,4.1,4.7,5
	c1.7,0.7,3.7,0.6,5.5-0.4c1.6-0.9,3-2.4,4.1-4.2c0.3,0.5,0.6,1.1,1,1.5c1.7,2.1,4.9,3.1,7.7,2.5c2-0.5,5.7-2.2,7.2-8.9
	c1.2-5.2,0-10.2-3.4-14c-4.3-4.8-11.7-7.1-19.2-6C34.9,30,29.9,33,26.7,37.7c-3.5,5.2-4.5,11.9-2.8,18.6c1.7,6.9,7.2,12,14.6,13.9
	c1.8,0.4,3.6,0.7,5.4,0.7c6,0,11.8-2.4,15.7-6.9c0.7-0.8,0.6-1.9-0.1-2.6c-0.8-0.7-1.9-0.6-2.6,0.1c-4.3,4.8-11,6.7-17.5,5.1
	c-6.1-1.5-10.5-5.7-11.9-11.2c-1.4-5.7-0.6-11.4,2.3-15.6c2.6-3.8,6.6-6.2,11.5-6.9c6.3-0.9,12.4,1,15.9,4.9
	c2.7,2.9,3.6,6.6,2.6,10.7c-0.8,3.5-2.4,5.6-4.5,6.1c-1.6,0.4-3.2-0.3-4-1.2c-2.6-3.1-1.8-9.9-1.3-12.3c0,0,0.1-0.5-0.2-1.3
	C49.5,39.1,48.7,38.8,48.7,38.8z M45.5,48.8c-0.4,2.7-2.1,5.3-3.9,6.3c-0.8,0.5-1.6,0.5-2.3,0.2c-1.2-0.5-2.1-1.5-2.6-2.8
	c-0.6-1.9-0.2-4.3,1.2-6.7c1.8-3.1,4.9-3.8,7.1-3.8c0.4,0,0.7,0,1,0C46.1,42.1,45.7,47.2,45.5,48.8z"/> <g> <line fill="none" stroke="#000000" stroke-width="0.3" x1="0.9" y1="-54.1" x2="0.9" y2="-18.1"/> <line fill="none" stroke="#000000" stroke-width="0.3" x1="-53.1" y1="-0.1" x2="-17.1" y2="-0.1"/> <line fill="none" stroke="#000000" stroke-width="0.3" x1="-53.1" y1="99.9" x2="-17.1" y2="99.9"/> <line fill="none" stroke="#000000" stroke-width="0.3" x1="0.9" y1="153.9" x2="0.9" y2="117.9"/> <line fill="none" stroke="#000000" stroke-width="0.3" x1="95.3" y1="-54.1" x2="95.3" y2="-18.1"/> <line fill="none" stroke="#000000" stroke-width="0.3" x1="149.3" y1="-0.1" x2="113.3" y2="-0.1"/> <line fill="none" stroke="#000000" stroke-width="0.3" x1="149.3" y1="99.9" x2="113.3" y2="99.9"/> <line fill="none" stroke="#000000" stroke-width="0.3" x1="95.3" y1="153.9" x2="95.3" y2="117.9"/> </g> </symbol><symbol viewBox="0 0 66.5 46.5" id="icon-game-controller"><title>game-controller</title> <g>  <path clip-path="url(#svgstore37961ae0879736c5a1a32e8a998fcf19SVGID_1_)" d="M51.2,16H35.5v-1.5h11.8c1.2,0,2.2-1,2.2-2.2v-7c0-1.2-1-2.2-2.2-2.2h-7.8V2.3
		c0-1.2-1-2.2-2.2-2.2C36,0,35,1,35,2.3v3c0,1.2,1,2.2,2.2,2.2H45V10H33.2C32,10,31,11,31,12.3V16H15.2C6.8,16,0,22.8,0,31.3
		s6.8,15.2,15.2,15.2c4.8,0,9.2-2.2,12.1-6h11.8c2.9,3.8,7.3,6,12.1,6c8.4,0,15.2-6.8,15.2-15.2S59.7,16,51.2,16 M51.2,42
		c-3.7,0-7.1-1.9-9.1-5c-0.4-0.6-1.1-1-1.9-1H26.2c-0.8,0-1.5,0.4-1.9,1c-2,3.1-5.4,5-9,5C9.3,42,4.5,37.2,4.5,31.3
		s4.8-10.8,10.8-10.8h36c5.9,0,10.8,4.8,10.8,10.8S57.2,42,51.2,42 M23.2,31.3c0,0.9-0.7,1.6-1.6,1.6h-4.7v4.7
		c0,0.9-0.7,1.6-1.6,1.6s-1.6-0.7-1.6-1.6v-4.7H9c-0.9,0-1.6-0.7-1.6-1.6c0-0.9,0.7-1.6,1.6-1.6h4.7V25c0-0.9,0.7-1.6,1.6-1.6
		s1.6,0.7,1.6,1.6v4.7h4.7C22.4,29.6,23.2,30.4,23.2,31.3 M51.2,23.3c-4.4,0-7.9,3.6-7.9,7.9c0,0,0,0,0,0c0,0,0,0,0,0c0,0,0,0,0,0
		c0,4.3,3.5,7.8,7.7,7.9c0.1,0,0.1,0,0.2,0c0.1,0,0.1,0,0.2,0c4.3-0.1,7.7-3.6,7.7-7.9c0,0,0,0,0,0c0,0,0,0,0,0c0,0,0,0,0,0
		C59.2,26.9,55.6,23.3,51.2,23.3 M55.6,29.6h-2.7v-2.8C54.1,27.3,55.1,28.4,55.6,29.6 M49.6,26.9v2.8h-2.7
		C47.4,28.4,48.4,27.3,49.6,26.9 M46.9,32.9h2.7v2.7C48.4,35.1,47.4,34.1,46.9,32.9 M52.9,35.6v-2.7h2.7
		C55.1,34.1,54.1,35.1,52.9,35.6"/> </g> </symbol><symbol viewBox="0 0 66.7 66.7" id="icon-gauge"><title>gauge</title> <path d="M57,9.8C50.7,3.5,42.3,0,33.4,0C24.5,0,16.1,3.5,9.8,9.8C3.5,16.1,0,24.5,0,33.4C0,42.3,3.5,50.7,9.8,57
	c6.3,6.3,14.7,9.8,23.6,9.8c0,0,0,0,0,0l0-2.2v2.2c8.9,0,17.3-3.5,23.6-9.8c6.3-6.3,9.8-14.7,9.8-23.6C66.7,24.5,63.3,16.1,57,9.8z
	 M53.8,53.8c-5.5,5.5-12.7,8.5-20.4,8.5h0c-7.7,0-15-3-20.4-8.5S4.5,41.1,4.5,33.4c0-7.7,3-15,8.5-20.4c5.5-5.5,12.7-8.5,20.4-8.5
	c7.7,0,15,3,20.4,8.5c5.5,5.5,8.5,12.7,8.5,20.4C62.2,41.1,59.2,48.3,53.8,53.8z M57.6,33.4c0,1.2-1,2.2-2.2,2.2s-2.2-1-2.2-2.2
	c0-5.3-2.1-10.2-5.8-14s-8.7-5.8-14-5.8c-5.3,0-10.2,2.1-14,5.8c-3.7,3.7-5.8,8.7-5.8,14c0,1.2-1,2.2-2.2,2.2s-2.2-1-2.2-2.2
	c0-6.5,2.5-12.6,7.1-17.1c4.6-4.6,10.7-7.1,17.1-7.1c6.5,0,12.6,2.5,17.1,7.1C55.1,20.8,57.6,26.9,57.6,33.4z M33.4,32.1
	c-0.3,0-0.6,0-0.9,0.1l-5.4-6.3c-0.8-0.9-2.2-1-3.2-0.2c-0.9,0.8-1,2.2-0.2,3.2l5.6,6.5c-0.1,0.3-0.1,0.7-0.1,1.1
	c0,1.1,0.5,2.2,1.3,3c0.8,0.8,1.9,1.2,3,1.2c1.1,0,2.2-0.4,3-1.3c0.8-0.8,1.2-1.9,1.2-3c0-1.1-0.5-2.2-1.3-3
	C35.6,32.6,34.5,32.1,33.4,32.1z"/> </symbol><symbol viewBox="0 0 100 100" id="icon-heads"><title>heads</title> <g> <path d="M82.151,52.217c2.966-2.476,4.893-6.526,4.893-11.095c0-7.527-5.239-13.646-11.682-13.646   c-4.087,0-7.693,2.469-9.785,6.195c-1.445-8.566-7.881-15.039-15.581-15.039S35.861,25.105,34.423,33.67   c-2.093-3.726-5.698-6.195-9.785-6.195c-6.451,0-11.689,6.119-11.689,13.646c0,4.569,1.927,8.618,4.893,11.095   C10.352,54.987,5,62.197,5,70.643c0,1.039,0.843,1.882,1.882,1.882h16.778c-0.587,2.228-0.903,4.561-0.903,6.962   c0,1.039,0.835,1.882,1.882,1.882h50.724c1.039,0,1.882-0.843,1.882-1.882c0-2.401-0.316-4.734-0.903-6.962h16.778   c1.039,0,1.882-0.843,1.882-1.882C95,62.197,89.641,54.987,82.151,52.217z M75.362,31.239c4.365,0,7.918,4.433,7.918,9.883   c0,5.45-3.553,9.883-7.918,9.883c-4.366,0-7.918-4.433-7.918-9.883C67.444,35.672,70.997,31.239,75.362,31.239z M68.573,52.217   c-2.055,0.745-3.974,1.852-5.69,3.267c-1.543-0.828-3.169-1.513-4.87-2.04c2.702-1.859,4.9-4.644,6.277-7.979   C65.073,48.212,66.593,50.568,68.573,52.217z M49.996,22.395c6.684,0,12.126,6.691,12.126,14.926   c0,8.227-5.442,14.918-12.126,14.918c-6.684,0-12.118-6.691-12.118-14.918C37.878,29.086,43.312,22.395,49.996,22.395z    M35.71,45.465c1.37,3.334,3.568,6.119,6.278,7.979c-1.701,0.519-3.327,1.204-4.87,2.04c-1.709-1.415-3.636-2.514-5.69-3.267   C33.407,50.568,34.92,48.212,35.71,45.465z M16.712,41.122c0-5.45,3.553-9.883,7.926-9.883c4.366,0,7.918,4.433,7.918,9.883   c0,5.45-3.553,9.883-7.918,9.883C20.265,51.005,16.712,46.571,16.712,41.122z M8.869,68.761   c0.933-7.873,7.647-13.993,15.769-13.993c3.289,0,6.451,1.001,9.1,2.868c-3.824,2.853-6.88,6.691-8.784,11.125H8.869z    M26.587,77.605c0.963-12.073,11.095-21.602,23.409-21.602c12.314,0,22.445,9.529,23.409,21.602H26.587z M75.046,68.761   c-1.912-4.433-4.96-8.272-8.784-11.125c2.65-1.867,5.811-2.868,9.1-2.868c8.114,0,14.828,6.119,15.761,13.993H75.046z"/> </g> </symbol><symbol viewBox="0 0 32 32" id="icon-home"><title>home</title> <path d="M32 18.451l-16-12.42-16 12.42v-5.064l16-12.42 16 12.42zM28 18v12h-8v-8h-8v8h-8v-12l12-9z"/> </symbol><symbol viewBox="0 0 32 32" id="icon-meter"><title>meter</title> <path d="M16 2c8.837 0 16 7.163 16 16 0 6.025-3.331 11.271-8.25 14h-15.499c-4.92-2.729-8.25-7.975-8.25-14 0-8.837 7.163-16 16-16zM25.060 27.060c2.42-2.42 3.753-5.637 3.753-9.060h-2.813v-2h2.657c-0.219-1.406-0.668-2.755-1.33-4h-3.327v-2h2.009c-0.295-0.368-0.611-0.722-0.949-1.060-1.444-1.444-3.173-2.501-5.060-3.119v2.178h-2v-2.658c-0.656-0.102-1.324-0.155-2-0.155s-1.344 0.053-2 0.155v2.658h-2v-2.178c-1.887 0.617-3.615 1.674-5.060 3.119-0.338 0.338-0.654 0.692-0.949 1.060h2.009v2h-3.327c-0.662 1.245-1.111 2.594-1.33 4h2.657v2h-2.813c0 3.422 1.333 6.64 3.753 9.060 0.335 0.335 0.685 0.648 1.049 0.94h6.011l1.143-16h1.714l1.143 16h6.011c0.364-0.292 0.714-0.606 1.049-0.94z"/> </symbol><symbol viewBox="0 0 52 52" id="icon-modal-close"><title>modal-close</title> <line x1="12" y1="12" x2="40" y2="40"/> <line x1="40" y1="12" x2="12" y2="40"/> </symbol><symbol viewBox="0 0 101.4 100" id="icon-phone"><title>phone</title> <path fill="#989898" d="M101.3,82.7c-0.3-1.8-1.5-3.4-3.6-4.9L75.3,62.5c-1.2-0.8-2.5-1.2-3.9-1.2c-2.2,0-4.2,1-5.4,2.7l-5.8,8.2
	c-0.5,0.6-0.6,1.4-0.6,2.2C57.4,74.8,51,74.6,40.4,64C30.2,53.8,25.3,46.3,26,41.7c0.1-0.1,0.2-0.2,0.3-0.2c0.5-0.1,1-0.3,1.4-0.6
	l8-6.1c2.9-2.2,3.4-6.4,1.2-9.4l-16-21.9c-3.1-4.2-6.7-4.6-10.6-1.3C7.9,4.3,3.8,9.4,2.1,12.5c-0.9,1.6-1.3,3.3-1.1,5
	C0.3,20-1,27.2,1.2,37.3C4.1,51,12,64.2,24.7,76.5c21.2,20.5,39.8,23.5,49,23.5c0,0,0,0,0,0c5.4,0,9.2-1,10.9-1.7
	c1.6,0.1,3.2-0.4,4.8-1.3c3-1.8,8-6,10-8.6C100.9,86.4,101.6,84.6,101.3,82.7z M80.5,95.5c-1.7,0.4-4,0.7-6.9,0.7c0,0,0,0,0,0
	c-8.6,0-26.1-2.9-46.3-22.5C-1.5,45.8,4,20.9,4.7,18.1c0.1-0.2,0.1-0.5,0-0.8c-0.1-1,0.1-2,0.7-3c1.5-2.7,5.3-7.4,7.4-9.2
	c1-0.8,1.8-1.3,2.5-1.3c0.3,0,1.2,0,2.6,1.9l16,21.8c1,1.3,0.8,3.2-0.5,4.1l-7.9,6c0,0-0.1,0-0.1,0l-3,2.5
	c-1.5,6.2,3.3,14.4,15.3,26.4c9.6,9.6,16.6,11.6,20.8,11.6c1.8,0,3.2-0.4,3.9-0.8c0.5-0.3,0.8-0.8,0.9-1.4c0-0.3,0.1-0.6,0.1-1
	c0-0.2,0-0.6,0-0.8l5.7-8c0.9-1.2,2.8-1.5,4.1-0.6l22.4,15.3c1.2,0.8,1.9,1.6,2,2.3c0.1,0.7-0.3,1.6-1.2,2.7c-1.7,2.2-6.4,6.1-9,7.7
	c-0.4,0.2-0.7,0.4-1.1,0.5c0,0-1.6,0.5-2.8,0.8C82.8,95.2,80.5,95.5,80.5,95.5z"/> </symbol><symbol viewBox="0 0 72.5 100" id="icon-pin-1"><title>pin-1</title> <path d="M36.3,0C16.3,0,0,16.2,0,36c0,5.4,1.2,10.6,3.5,15.4C14.2,76.1,34,98.4,34.8,99.3c0.4,0.5,1,0.7,1.6,0.7
	c0.6,0,1.2-0.3,1.6-0.7c0.8-0.9,20.3-23.2,31-47.8c2.3-4.9,3.5-10.1,3.5-15.5C72.5,16.2,56.2,0,36.3,0z M65.1,49.7
	c-8.7,20-23.8,39-28.7,44.9c-5-5.9-20.3-24.8-29-44.9c-2-4.2-3.1-8.8-3.1-13.6c0-17.5,14.4-31.8,32-31.8c17.6,0,32,14.3,32,31.8
	C68.3,40.7,67.2,45.3,65.1,49.7z M36.3,22.8c-9.4,0-17.1,7.7-17.1,17.1c0,9.4,7.7,17.1,17.1,17.1c9.4,0,17.1-7.7,17.1-17.1
	C53.3,30.5,45.7,22.8,36.3,22.8z M36.3,52.7c-7.1,0-12.8-5.7-12.8-12.8c0-7.1,5.7-12.8,12.8-12.8c7.1,0,12.8,5.7,12.8,12.8
	C49.1,46.9,43.3,52.7,36.3,52.7z"/> </symbol><symbol viewBox="0 0 34.5 67.5" id="icon-pin-2"><title>pin-2</title> <path d="M34.5,17.2C34.5,7.7,26.8,0,17.2,0S0,7.7,0,17.2c0,8.7,6.6,16,15,17.1v30.9c0,1.2,1,2.2,2.2,2.2c1.2,0,2.2-1,2.2-2.2V34.3
	C27.9,33.2,34.5,26,34.5,17.2z M17.2,30c-7,0-12.8-5.7-12.8-12.8S10.2,4.5,17.2,4.5S30,10.2,30,17.2S24.3,30,17.2,30z M18.8,7.3
	c0,0.8-0.7,1.5-1.5,1.5c-4.6,0-8.4,3.8-8.4,8.4c0,0.8-0.7,1.5-1.5,1.5s-1.5-0.7-1.5-1.5C5.8,11,11,5.8,17.2,5.8
	C18.1,5.8,18.8,6.5,18.8,7.3z"/> </symbol><symbol viewBox="261.8 360.6 88.4 70.8" id="icon-quote-left"><title>quote-left</title> <path d="M292.9,360.6c2.1,0,4.1,0.6,5.8,1.8c1.7,1.2,2.5,2.5,2.5,4c0,0.9-0.5,1.9-1.7,3.1c-3.9,3.9-6.6,7.1-8.1,9.7
	c-1.5,2.6-2.3,5.3-2.3,8c0,1.9,1,3.7,3,5.2c3.9,3,6.6,5.9,8.2,8.6c1.5,2.8,2.3,6,2.3,9.8c0,5.9-1.9,10.7-5.7,14.7
	c-3.8,3.9-8.5,5.9-14.2,5.9c-6.4,0-11.6-2.5-15.6-7.4c-3.6-4.4-5.4-9.6-5.4-15.7c0-14.4,7-28.6,20.9-42.3
	C286.1,362.5,289.5,360.7,292.9,360.6z M340.5,360.6c2.1,0,4.1,0.6,5.8,1.8c1.7,1.2,2.5,2.5,2.5,4c0,0.9-0.6,1.9-1.8,3.1
	c-3.8,3.9-6.5,7.1-8,9.7c-1.5,2.6-2.3,5.3-2.3,8c0,1.9,1,3.7,3,5.2c3.9,3,6.6,5.9,8.2,8.6c1.5,2.8,2.3,6,2.3,9.8
	c0,5.9-1.9,10.7-5.7,14.7c-3.8,3.9-8.5,5.9-14.2,5.9c-6.4,0-11.6-2.5-15.6-7.4c-3.6-4.4-5.4-9.6-5.4-15.7c0-14.4,7-28.6,20.9-42.3
	C333.7,362.5,337.1,360.7,340.5,360.6z"/> </symbol><symbol viewBox="261.7 360.7 88.4 70.7" id="icon-quote-right"><title>quote-right</title> <path d="M281.6,360.7c6.4,0,11.6,2.5,15.6,7.4c3.6,4.4,5.4,9.6,5.4,15.7c0,7.1-1.8,14.4-5.5,21.8
	c-3.7,7.4-8.8,14.3-15.4,20.5c-3.7,3.4-7,5.1-10.3,5.1c-2.1,0-4.1-0.6-5.8-1.8c-1.7-1.1-2.5-2.5-2.5-4c0-0.9,0.6-1.9,1.8-3.1
	c3.8-4,6.5-7.2,8-9.8c1.5-2.6,2.3-5.3,2.3-8c0-1.9-1-3.6-3.1-5.1c-3.8-3-6.4-5.9-8-8.6c-1.6-2.8-2.4-6-2.4-9.8
	c0-5.9,1.8-10.8,5.6-14.7C271.1,362.7,275.8,360.8,281.6,360.7z M329.2,360.7c6.4,0,11.6,2.5,15.6,7.4c3.6,4.4,5.4,9.6,5.4,15.6
	c0,7.2-1.8,14.5-5.4,22c-3.7,7.4-8.7,14.3-15.3,20.5c-3.7,3.4-7,5.1-10.3,5.1c-2.1,0-4.1-0.6-5.8-1.8c-1.7-1.1-2.5-2.5-2.5-4
	c0-0.9,0.5-1.9,1.7-3.1c3.9-4,6.6-7.3,8-9.9c1.5-2.6,2.2-5.2,2.2-7.9c0-1.9-1-3.6-3.1-5.1c-3.8-2.9-6.4-5.8-8-8.6
	c-1.6-2.8-2.4-6-2.4-9.8c0-5.9,1.8-10.8,5.6-14.7C318.6,362.7,323.4,360.8,329.2,360.7z"/> </symbol><symbol viewBox="0 0 864 864" id="icon-rocket"><title>rocket</title> <g display="none"> <path display="inline" fill="#FF0000" stroke="#FF0000" stroke-width="8" stroke-miterlimit="10" d="M762,127.9
		c-0.9-4.3-4.3-6.9-8.6-8.6c-1.7,0-33.7-10.4-79.5-10.4c-44.9,0-111.5,10.4-170.2,57.9c-71.7,59.6-104.5,121-123.6,168.5
		c-11.2-3.5-22.5-5.2-33.7-5.2c-27.6,0-52.7,10.4-71.7,28.5L188.4,445c-3.5,3.5-5.2,9.5-2.6,14.7c1.7,4.3,6.9,7.8,12.1,7.8h0.9
		L344,455.4c-9.5,42.3-17.3,82.1-17.3,84.7c-0.9,4.3,0.9,8.6,3.5,11.2c2.6,2.6,6,3.5,9.5,3.5c0.9,0,1.7,0,2.6,0
		c2.6-0.9,41.5-7.8,83.8-18.1l-12.1,146c-0.9,5.2,2.6,10.4,7.8,13c1.7,0.9,3.5,0.9,5.2,0.9c3.5,0,6.9-1.7,9.5-3.5l86.4-86.4
		c28.5-28.5,34.6-69.1,24.2-105.4c47.5-19,108.9-51.8,167.6-124.4C804.4,267.8,763.8,133.1,762,127.9z M231.6,438.9l61.3-61.3
		c17.3-17.3,38.9-21.6,53.6-21.6c7.8,0,16.4,0.9,24.2,3.5c-1.7,5.2-3.5,9.5-5.2,13.8c-5.2,15.6-10.4,35.4-15.6,56.2L231.6,438.9z
		 M355.1,526.2c3.5-16.4,8.6-40.6,14.7-66.5l51.8,51.8C395.7,517.5,371.5,522.7,355.1,526.2z M503.7,588.4l-61.3,61.3l9.5-118.4
		c20.7-5.2,40.6-10.4,56.2-16.4c4.3-1.7,8.6-3.5,13.8-5.2C528.8,537.4,525.3,566.8,503.7,588.4z M694.7,360.3
		c-72.6,88.1-149.5,114.9-195.3,130.5c-17.3,6-39.7,12.1-63.1,17.3L373.2,445c5.2-23.3,12.1-46.7,17.3-63.1
		c15.6-45.8,42.3-122.7,130.5-195.3c52.7-43.2,112.3-51.8,153.8-51.8c30.2,0,53.6,4.3,64.8,6.9C745.6,169.3,764.6,275.6,694.7,360.3
		z"/> <path display="inline" fill="#FF0000" stroke="#FF0000" stroke-width="5" stroke-miterlimit="10" d="M608.3,209.1
		c-17.3,0-32.8,6.9-44.9,19c-25.1,25.1-25.1,64.8,0,89.9c12.1,12.1,27.6,19,44.9,19c17.3,0,32.8-6.9,44.9-19
		c25.1-25.1,25.1-64.8,0-89.9C641.1,216,625.5,209.1,608.3,209.1z M641.1,305.9c-8.6,8.6-20.7,13.8-32.8,13.8s-24.2-5.2-32.8-13.8
		c-18.1-18.1-18.1-47.5,0-65.7c8.6-8.6,20.7-13.8,32.8-13.8s24.2,5.2,32.8,13.8c2.6,2.6,5.2,6,6.9,9.5h-49.2c-2.6,0-4.3,1.7-4.3,4.3
		s1.7,4.3,4.3,4.3h52.7C657.5,273.9,654,292.9,641.1,305.9z"/> <path display="inline" fill="#FF0000" stroke="#FF0000" stroke-width="5" stroke-miterlimit="10" d="M631.6,265.2h-48.4
		c-2.6,0-4.3,1.7-4.3,4.3c0,2.6,1.7,4.3,4.3,4.3h48.4c2.6,0,4.3-1.7,4.3-4.3C635.9,267.8,633.3,265.2,631.6,265.2z"/> <path display="inline" fill="#FF0000" stroke="#FF0000" stroke-width="8" stroke-miterlimit="10" d="M225.5,735.3
		c-4.3,4.3-4.3,12.1,0,16.4c4.3,4.3,12.1,4.3,16.4,0c4.3-4.3,4.3-12.1,0-16.4C237.6,730.9,230.7,730.9,225.5,735.3z"/> <circle display="inline" fill="#FF0000" stroke="#FF0000" stroke-width="8" stroke-miterlimit="10" cx="102.8" cy="681.7" r="11.2"/> <circle display="inline" fill="#FF0000" stroke="#FF0000" stroke-width="8" stroke-miterlimit="10" cx="151.2" cy="698.1" r="11.2"/> <circle display="inline" fill="#FF0000" stroke="#FF0000" stroke-width="8" stroke-miterlimit="10" cx="230.7" cy="683.4" r="11.2"/> <path display="inline" fill="#FF0000" stroke="#FF0000" stroke-width="8" stroke-miterlimit="10" d="M309.3,649.7l-57,57
		c-5.2,5.2-5.2,13,0,18.1c2.6,2.6,6,3.5,9.5,3.5s6.9-0.9,9.5-3.5l57-57c5.2-5.2,5.2-13,0-18.1S314.5,644.5,309.3,649.7z"/> <path display="inline" fill="#FF0000" stroke="#FF0000" stroke-width="8" stroke-miterlimit="10" d="M287.7,607.4L248,647.1
		c-5.2,5.2-5.2,13,0,18.1c2.6,2.6,6,3.5,9.5,3.5s6.9-0.9,9.5-3.5l39.7-39.7c5.2-5.2,5.2-13,0-18.1
		C301.5,602.2,292.9,602.2,287.7,607.4z"/> <path display="inline" fill="#FF0000" stroke="#FF0000" stroke-width="8" stroke-miterlimit="10" d="M298.1,551.2
		c-5.2-5.2-13-5.2-18.1,0L169.3,661c-5.2,5.2-5.2,13,0,18.1c2.6,2.6,6,3.5,9.5,3.5s6.9-0.9,9.5-3.5L298,569.4
		C303.3,564.2,303.3,556.4,298.1,551.2z"/> <path display="inline" fill="#FF0000" stroke="#FF0000" stroke-width="8" stroke-miterlimit="10" d="M213.4,571.1
		c-5.2-5.2-13-5.2-18.1,0L121,645.4c-5.2,5.2-5.2,13,0,18.1c2.6,2.6,6,3.5,9.5,3.5s6.9-0.9,9.5-3.5l74.3-74.3
		C218.6,584.9,218.6,576.3,213.4,571.1z"/> </g> <path d="M427,700.6c-1.9,0-4.5,0-7.1-1.4c-7-3.5-11-10.3-9.9-17l11.6-140.3c-27.2,6.5-52.6,11.5-66.6,14.3
	c-5.7,1.1-10.6,2.1-11.5,2.4l-0.6,0.2l-0.6,0h-2.6c-5.1,0-9.2-1.6-12.3-4.7c-3-3-5.8-8.5-4.6-14.6c0.6-6,8.2-43.6,16.2-79.7
	L199,471.5h-1.1c-6.6,0-13.4-4.4-15.8-10.2c-3-6.2-1.6-14.1,3.4-19.2l86.3-86.4c20.1-19.2,46.6-29.7,74.5-29.7
	c10.5,0,21.1,1.5,31.4,4.3c17.5-42.8,49.5-105.3,123.4-166.7c60.1-48.6,127.1-58.8,172.8-58.8c38.9,0,67.8,7.4,77.4,9.8
	c1,0.2,2,0.5,2.4,0.6h0.5l0.7,0.3c6.2,2.4,9.9,6.2,11,11.3c2.2,7,42.7,142.2-48.1,252.6c-60.4,74.7-123,106.8-165.9,124.2
	c10.2,39.8,0.6,79.1-26.2,105.8l-86.7,86.7l-0.3,0.2C434.7,699.2,430.8,700.6,427,700.6z M455.7,534.5l-8.4,104.7l53.6-53.6
	c17.6-17.6,24-42.5,18.1-70.6c-2.5,0.9-4.8,1.8-7.1,2.8l-2.3,0.9C494.3,524.5,474.7,529.7,455.7,534.5z M372.1,467.6
	c-4.7,20.2-8.7,39-11.8,53.4c15.9-3.4,34-7.3,53.4-11.8L372.1,467.6z M377.6,443.7l60,60c22.8-5.1,44.2-11,60.5-16.7
	c21-7.1,52.6-17.9,86.9-37.7c40.1-23.2,75-53.1,106.6-91.5c63.6-77,52.9-172.6,44.6-212.7c-11.7-2.6-33.4-6.2-61.4-6.2
	c-59.2,0-110.1,17.1-151.3,50.9c-88,72.5-113.8,148.2-129.2,193.5C389.5,398.2,382.8,420.8,377.6,443.7z M346.5,360
	c-11.3,0-33,2.7-50.8,20.4l-53.6,53.6l104.6-8.3c4.5-18,9.8-38,15-53.7l0.1-0.2l0.9-2.3c0.9-2.4,1.9-4.8,2.8-7.3
	C359.9,360.7,353.4,360,346.5,360z M608.3,339.5c-17.6,0-33.8-6.8-46.7-19.7c-12.6-12.6-19.6-29.2-19.6-46.7
	c0-17.5,6.9-34.1,19.6-46.7c12.9-12.9,29-19.7,46.7-19.7s33.8,6.8,46.7,19.7c26.2,26.2,26.2,67.2,0,93.4
	C642.1,332.7,625.9,339.5,608.3,339.5z M608.3,228.9c-11.2,0-22.8,4.9-31,13.1c-17.1,17.2-17.1,45.1,0,62.2
	c8.2,8.2,19.8,13.1,31,13.1s22.8-4.9,31-13.1c11.5-11.5,15.5-28.4,10.4-43.3h-50.9c-4,0-6.8-2.8-6.8-6.8s2.8-6.8,6.8-6.8h44.9
	c-1.2-1.8-2.7-3.6-4.3-5.2C631.1,233.8,619.5,228.9,608.3,228.9z M631.6,276.3h-48.4c-4,0-6.8-2.8-6.8-6.8s2.8-6.8,6.8-6.8h48.4
	c3.1,0,6.8,3.7,6.8,6.8C638.4,273.5,635.6,276.3,631.6,276.3z M233.7,758.9c-4.2,0-8.2-1.6-11-4.4c-5.9-5.9-5.9-16.2,0-22.1l0.2-0.2
	c3.2-2.7,7.2-4.2,11.1-4.2c4.1,0,7.9,1.6,10.7,4.5c2.8,2.8,4.4,6.8,4.4,11s-1.6,8.2-4.4,11C241.9,757.3,237.9,758.9,233.7,758.9z
	 M102.8,696.9c-8.4,0-15.2-6.8-15.2-15.2s6.8-15.2,15.2-15.2s15.2,6.8,15.2,15.2S111.2,696.9,102.8,696.9z M151.2,713.3
	c-8.4,0-15.2-6.8-15.2-15.2c0-8.4,6.8-15.2,15.2-15.2s15.2,6.8,15.2,15.2C166.4,706.5,159.6,713.3,151.2,713.3z M230.7,698.6
	c-8.4,0-15.2-6.8-15.2-15.2c0-8.4,6.8-15.2,15.2-15.2s15.2,6.8,15.2,15.2C245.9,691.8,239.1,698.6,230.7,698.6z M261.8,732.3
	c-5.1,0-9.2-1.6-12.3-4.7c-3.2-3.2-5-7.4-5.1-11.8c0-4.4,1.8-8.7,5.1-12l57-57c3.2-3.2,7.6-5,12.3-5c4.7,0,9.1,1.8,12.4,5
	c3.3,3.2,5.1,7.4,5.1,11.8c0,4.4-1.8,8.7-5.1,12l-57,57C271,730.7,266.9,732.3,261.8,732.3z M178.8,686.6c-5.1,0-9.2-1.6-12.3-4.7
	c-3.2-3.2-5-7.4-5.1-11.8c0-4.4,1.8-8.7,5.1-12l110.7-109.8c3.2-3.2,7.4-5.1,11.8-5.1c4.4,0,8.6,1.8,11.9,5.1
	c3.3,3.3,5.1,7.5,5.1,12c0,4.4-1.9,8.7-5.2,11.9L191.1,681.9C188,685,183.9,686.6,178.8,686.6z M257.5,672.7
	c-5.1,0-9.2-1.6-12.3-4.7c-3.2-3.2-5.1-7.4-5.1-11.8c0-4.4,1.8-8.7,5.1-12l39.7-39.7c3.3-3.3,7.6-5.1,12.3-5.1s9.1,1.8,12.3,5.1
	c3.2,3.2,5,7.4,5.1,11.8c0,4.4-1.8,8.7-5.1,12L269.8,668C266.7,671.1,262.6,672.7,257.5,672.7z M130.5,671c-5.1,0-9.2-1.6-12.3-4.7
	c-3.2-3.2-5.1-7.4-5.1-11.8c0-4.4,1.8-8.7,5.1-12l74.3-74.3c3.2-3.3,7.4-5.1,11.8-5.1c4.4,0,8.6,1.8,11.9,5.1
	c3.2,3.2,5,7.5,5.2,12.1c0.2,4.5-1.4,8.8-4.3,11.7l-74.3,74.3C139.7,669.4,135.6,671,130.5,671z"/> </symbol><symbol viewBox="0 0 60.5 66.5" id="icon-stopwatch"><title>stopwatch</title> <path d="M60.5,36.2L60.5,36.2c0-8.1-3.1-15.7-8.9-21.4c-5.2-5.2-11.9-8.2-19.1-8.8V4.5h3.8c1.2,0,2.2-1,2.2-2.2S37.5,0,36.2,0h-6H28
	h-3.8C23,0,22,1,22,2.2s1,2.2,2.2,2.2H28v1.6c-7.2,0.5-14,3.6-19.1,8.8C3.1,20.6,0,28.2,0,36.2v0v0l0,0c0,8.1,3.1,15.7,8.9,21.4
	c5.7,5.7,13.3,8.9,21.4,8.9h0h0h0c8.1,0,15.7-3.1,21.4-8.9C57.4,51.9,60.5,44.3,60.5,36.2L60.5,36.2L60.5,36.2z M50,52.8l-3.5-3.5
	c-0.9-0.9-2.3-0.9-3.2,0s-0.9,2.3,0,3.2l3.5,3.5c-4.1,3.4-9,5.5-14.3,5.9v-1.6c0-1.2-1-2.2-2.2-2.2C29,58,28,59,28,60.2v1.6
	c-5.3-0.5-10.2-2.5-14.3-5.9l3.5-3.5c0.9-0.9,0.9-2.3,0-3.2c-0.9-0.9-2.3-0.9-3.2,0l-3.5,3.5c-3.4-4.1-5.5-9-5.9-14.3h1.6
	c1.2,0,2.2-1,2.2-2.2S7.5,34,6.2,34H4.6c0.5-5.3,2.5-10.2,5.9-14.3l3.5,3.5c0.4,0.4,1,0.7,1.6,0.7c0.6,0,1.2-0.2,1.6-0.7
	c0.9-0.9,0.9-2.3,0-3.2l-3.5-3.5c4.1-3.4,9-5.5,14.3-5.9v1.6c0,1.2,1,2.2,2.2,2.2c1.2,0,2.2-1,2.2-2.2v-1.6
	c5.3,0.5,10.2,2.5,14.3,5.9l-3.5,3.5c-0.9,0.9-0.9,2.3,0,3.2c0.4,0.4,1,0.7,1.6,0.7s1.2-0.2,1.6-0.7l3.5-3.5c3.4,4.1,5.5,9,5.9,14.3
	h-1.6C53,34,52,35,52,36.2s1,2.2,2.2,2.2h1.6C55.4,43.8,53.4,48.7,50,52.8z M32.5,31.5c0-0.1,0-0.2,0-0.3v-9c0-1.2-1-2.2-2.2-2.2
	C29,20,28,21,28,22.2v9c0,0.1,0,0.2,0,0.3c-1.8,0.8-3,2.6-3,4.7c0,2.9,2.4,5.2,5.2,5.2c2.9,0,5.2-2.4,5.2-5.2
	C35.5,34.2,34.3,32.4,32.5,31.5z M30.2,37.8c-0.8,0-1.5-0.7-1.5-1.5s0.7-1.5,1.5-1.5s1.5,0.7,1.5,1.5S31.1,37.8,30.2,37.8z"/> </symbol><symbol viewBox="0 0 65.8 61.5" id="icon-tools"><title>tools</title> <g>  <path clip-path="url(#svgstore20aaf9db9cc2e8a7fd688eada83df69cSVGID_1_)" fill="#FFFFFF" d="M65.1,51.7l-19-19c-0.9-0.9-2.3-0.9-3.2,0l-1.4,1.4l-2.4-2.4l6.3-6.2h3.1
		c4.6,0,12.2-1.9,12.2-14.8c0-0.8-0.4-1.5-1-1.9c-0.6-0.4-1.5-0.5-2.2-0.1L51,11.8l-1.8-1.9l2.9-6.7c0.3-0.7,0.2-1.5-0.2-2.1
		c-0.4-0.6-1.1-1-1.9-1c-12.8,0-14.8,7.6-14.8,12.2v3.1l-6.2,6.3L18.7,11.3l1.4-1.4c0.5-0.5,0.7-1.2,0.6-1.9
		c-0.1-0.7-0.5-1.3-1.1-1.7l-10-6c-0.9-0.5-2-0.4-2.7,0.3l-2,2C4.2,3.4,4,4.5,4.6,5.4l6,10c0.4,0.6,1,1,1.7,1.1c0.1,0,0.2,0,0.3,0
		c0.6,0,1.2-0.2,1.6-0.7l1.4-1.4l10.4,10.4L2.4,48.7c-0.3,0.3-0.5,0.6-0.6,0.9l-1.8,6c-0.2,0.8,0,1.7,0.6,2.3l2.1,2
		c0.4,0.4,1,0.6,1.5,0.6c0.2,0,0.4,0,0.5-0.1l6.1-1.5c0.4-0.1,0.8-0.3,1-0.6l23.9-23.5l2.4,2.4l-1.4,1.4c-0.9,0.9-0.9,2.3,0,3.2
		l19,19c0.4,0.4,1,0.7,1.6,0.7c0.6,0,1.2-0.2,1.6-0.7l6-6C66,54,66,52.5,65.1,51.7 M10.1,5.8l4.8,2.9l-1.9,1.9L10.1,5.8z M9.3,54.7
		L5,55.8l-0.2-0.2L6,51.4l33.1-33.6c0.4-0.4,0.6-1,0.6-1.6v-4c0-2.8,0.8-6.4,6.7-7.4l-2,4.6c-0.4,0.8-0.2,1.8,0.4,2.5l4,4.1
		c0.7,0.7,1.7,0.9,2.6,0.5l4.5-2.1c-1,5.8-4.6,6.6-7.5,6.6h-4c-0.6,0-1.2,0.2-1.6,0.6L9.3,54.7z M57.5,56.1L41.7,40.3l2.8-2.8
		l15.8,15.8L57.5,56.1z"/> </g> </symbol></svg>