<?xml version="1.0" encoding="utf-8"?>
<!-- Generator: Adobe Illustrator 17.1.0, SVG Export Plug-In . SVG Version: 6.00 Build 0)  -->
<!DOCTYPE svg PUBLIC "-//W3C//DTD SVG 1.1//EN" "http://www.w3.org/Graphics/SVG/1.1/DTD/svg11.dtd">
<svg version="1.1" id="Layer_1" xmlns="http://www.w3.org/2000/svg" xmlns:xlink="http://www.w3.org/1999/xlink" x="0px" y="0px"
	 viewBox="0 0 65.8 61.5" enable-background="new 0 0 65.8 61.5" xml:space="preserve">
<g>
	<defs>
		<rect id="SVGID_1_" y="0" width="65.8" height="61.5"/>
	</defs>
	<clipPath id="SVGID_2_">
		<use xlink:href="#SVGID_1_"  overflow="visible"/>
	</clipPath>
	<path clip-path="url(#SVGID_2_)" fill="#FFFFFF" d="M65.1,51.7l-19-19c-0.9-0.9-2.3-0.9-3.2,0l-1.4,1.4l-2.4-2.4l6.3-6.2h3.1
		c4.6,0,12.2-1.9,12.2-14.8c0-0.8-0.4-1.5-1-1.9c-0.6-0.4-1.5-0.5-2.2-0.1L51,11.8l-1.8-1.9l2.9-6.7c0.3-0.7,0.2-1.5-0.2-2.1
		c-0.4-0.6-1.1-1-1.9-1c-12.8,0-14.8,7.6-14.8,12.2v3.1l-6.2,6.3L18.7,11.3l1.4-1.4c0.5-0.5,0.7-1.2,0.6-1.9
		c-0.1-0.7-0.5-1.3-1.1-1.7l-10-6c-0.9-0.5-2-0.4-2.7,0.3l-2,2C4.2,3.4,4,4.5,4.6,5.4l6,10c0.4,0.6,1,1,1.7,1.1c0.1,0,0.2,0,0.3,0
		c0.6,0,1.2-0.2,1.6-0.7l1.4-1.4l10.4,10.4L2.4,48.7c-0.3,0.3-0.5,0.6-0.6,0.9l-1.8,6c-0.2,0.8,0,1.7,0.6,2.3l2.1,2
		c0.4,0.4,1,0.6,1.5,0.6c0.2,0,0.4,0,0.5-0.1l6.1-1.5c0.4-0.1,0.8-0.3,1-0.6l23.9-23.5l2.4,2.4l-1.4,1.4c-0.9,0.9-0.9,2.3,0,3.2
		l19,19c0.4,0.4,1,0.7,1.6,0.7c0.6,0,1.2-0.2,1.6-0.7l6-6C66,54,66,52.5,65.1,51.7 M10.1,5.8l4.8,2.9l-1.9,1.9L10.1,5.8z M9.3,54.7
		L5,55.8l-0.2-0.2L6,51.4l33.1-33.6c0.4-0.4,0.6-1,0.6-1.6v-4c0-2.8,0.8-6.4,6.7-7.4l-2,4.6c-0.4,0.8-0.2,1.8,0.4,2.5l4,4.1
		c0.7,0.7,1.7,0.9,2.6,0.5l4.5-2.1c-1,5.8-4.6,6.6-7.5,6.6h-4c-0.6,0-1.2,0.2-1.6,0.6L9.3,54.7z M57.5,56.1L41.7,40.3l2.8-2.8
		l15.8,15.8L57.5,56.1z"/>
</g>
</svg>
