<?xml version="1.0" encoding="utf-8"?>
<!-- Generator: Adobe Illustrator 18.0.0, SVG Export Plug-In . SVG Version: 6.00 Build 0)  -->
<!DOCTYPE svg PUBLIC "-//W3C//DTD SVG 1.1//EN" "http://www.w3.org/Graphics/SVG/1.1/DTD/svg11.dtd">
<svg version="1.1" id="Layer_1" xmlns="http://www.w3.org/2000/svg" xmlns:xlink="http://www.w3.org/1999/xlink" x="0px" y="0px"
	 viewBox="0 0 864 864" enable-background="new 0 0 864 864" xml:space="preserve">
<g>
	<path d="M432,786.2c-195.3,0-354.2-159-354.2-354.2S236.7,77.8,432,77.8s354.2,159,354.2,354.2S627.3,786.2,432,786.2z M432,138.2
		c-161.6,0-293.8,132.2-293.8,293.8S270.4,725.8,432,725.8S725.8,593.6,725.8,432S593.6,138.2,432,138.2z"/>
</g>
<path d="M601.4,319.7c-14.3-14.3-38.1-14.3-52.3,0L402.5,465.3l-69.4-69.4c-14.3-14.3-38.1-14.3-52.3,0c-14.3,14.3-14.3,38.1,0,52.3
	l96.1,96.1l0,0c6.7,7.6,16.2,11.4,25.7,11.4l0,0l0,0c9.5,0,19-3.8,26.6-10.5l0,0L601.4,373C615.6,357.8,615.6,334,601.4,319.7z"/>
</svg>
