<?xml version="1.0" encoding="utf-8"?>
<!-- Generator: Adobe Illustrator 17.1.0, SVG Export Plug-In . SVG Version: 6.00 Build 0)  -->
<!DOCTYPE svg PUBLIC "-//W3C//DTD SVG 1.1//EN" "http://www.w3.org/Graphics/SVG/1.1/DTD/svg11.dtd">
<svg version="1.1" viewBox="0 0 66.5 66.5">
<g>
	<defs>
		<rect id="SVGID_1_" width="66.5" height="66.5"/>
	</defs>
	<path clip-path="url(#SVGID_1_)" fill="#FFFFFF" d="M56.8,9.7C50.5,3.5,42.1,0,33.3,0C24.4,0,16,3.5,9.7,9.7C3.5,16,0,24.4,0,33.3
		s3.5,17.2,9.7,23.5c6.3,6.3,14.6,9.7,23.5,9.7c8.9,0,17.2-3.5,23.5-9.7c6.3-6.3,9.7-14.6,9.7-23.5S63,16,56.8,9.7 M53.6,53.6
		c-4.9,4.9-11.2,7.8-18.1,8.3v-2.7c0-1.2-1-2.2-2.2-2.2C32,57,31,58,31,59.3v2.7c-6.8-0.5-13.2-3.4-18.1-8.3S5.1,42.3,4.6,35.5h2.7
		c1.2,0,2.2-1,2.2-2.2c0-1.2-1-2.2-2.2-2.2H4.6c0.5-6.8,3.4-13.2,8.3-18.1C17.8,8,24.2,5.1,31,4.6v2.7c0,1.2,1,2.2,2.2,2.2
		c1.2,0,2.2-1,2.2-2.2V4.6c6.8,0.5,13.2,3.4,18.1,8.3c4.9,4.9,7.8,11.2,8.3,18.1h-2.7C58,31,57,32,57,33.3c0,1.2,1,2.2,2.2,2.2h2.7
		C61.4,42.3,58.5,48.7,53.6,53.6 M43.8,40.7c0.9,0.9,0.9,2.3,0,3.2c-0.4,0.4-1,0.7-1.6,0.7s-1.2-0.2-1.6-0.7l-9-9
		c-0.4-0.4-0.7-1-0.7-1.6v-19c0-1.2,1-2.2,2.2-2.2c1.2,0,2.2,1,2.2,2.2v18.1L43.8,40.7z"/>
</g>
</svg>
