<?xml version="1.0" encoding="utf-8"?>
<!-- Generator: Adobe Illustrator 18.0.0, SVG Export Plug-In . SVG Version: 6.00 Build 0)  -->
<!DOCTYPE svg PUBLIC "-//W3C//DTD SVG 1.1//EN" "http://www.w3.org/Graphics/SVG/1.1/DTD/svg11.dtd">
<svg version="1.1" id="Layer_1" xmlns="http://www.w3.org/2000/svg" xmlns:xlink="http://www.w3.org/1999/xlink" x="0px" y="0px"
	 viewBox="0 0 50 50" enable-background="new 0 0 50 50" xml:space="preserve">
<g id="coffee">
	<path d="M39.7,22.8h-0.6v-2.3h-27v10.9c0,3.6,1.4,7,4,9.5c2.5,2.5,5.9,3.9,9.5,3.9c6.6,0,12.2-4.7,13.3-11.1h0.8
		c3,0,5.5-2.5,5.5-5.5C45.2,25.3,42.7,22.8,39.7,22.8z M36.9,31.4c0,0.4,0,0.8-0.1,1.2c-0.6,5.8-5.4,10.1-11.3,10.1
		c-3,0-5.9-1.2-8-3.3c-2.2-2.1-3.3-5-3.3-8v-8.8h22.7V31.4z M39.7,31.7h-0.6c0-0.1,0-0.2,0-0.2v-6.5h0.6c1.8,0,3.4,1.5,3.4,3.4
		S41.6,31.7,39.7,31.7z"/>
	<path d="M19.3,17.9c0.2,0.1,0.4,0.2,0.6,0.2c0.3,0,0.7-0.2,0.9-0.4c0.3-0.5,0.2-1.1-0.2-1.5c-0.4-0.3-0.7-0.7-0.7-0.8
		c0,0,0.1-0.1,0.2-0.2c0.9-0.6,1.4-1.3,1.5-2.1c0.2-1-0.3-1.7-0.4-1.9c-0.3-0.5-1-0.6-1.5-0.2c-0.5,0.4-0.6,1-0.2,1.5
		c0,0,0.1,0.1,0,0.3c0,0.2-0.3,0.5-0.6,0.7c-1,0.7-1.2,1.4-1.2,2C17.7,16.7,19,17.7,19.3,17.9z"/>
	<path d="M25.7,17.9c0.2,0.1,0.4,0.2,0.6,0.2c0.3,0,0.7-0.2,0.9-0.4c0.3-0.5,0.2-1.1-0.2-1.5c-0.5-0.3-1.8-1.6-1.8-2.6
		c0-0.2,0-0.7,1-1.4c1.5-1.1,2.4-2.3,2.7-3.6c0.3-1.7-0.6-2.9-0.6-3c-0.3-0.5-1-0.6-1.5-0.2c-0.5,0.3-0.6,1-0.3,1.5
		c0.2,0.3,1.1,1.9-1.5,3.6c-1.6,1.1-1.9,2.3-1.9,3.1C23,15.9,25.4,17.7,25.7,17.9z"/>
	<path d="M30.3,17.9c0.2,0.1,0.4,0.2,0.6,0.2c0.3,0,0.7-0.2,0.9-0.4c0.3-0.5,0.2-1.1-0.2-1.5C31.3,16,31,15.6,31,15.5
		c0,0,0-0.1,0.2-0.2c0.8-0.6,1.3-1.2,1.4-2c0.2-1-0.3-1.6-0.4-1.8c-0.4-0.5-1-0.5-1.5-0.2c-0.5,0.4-0.6,1.1-0.2,1.6
		c0,0.1-0.1,0.3-0.5,0.6c-0.9,0.6-1.1,1.4-1.1,1.9C28.8,16.8,30,17.7,30.3,17.9z"/>
</g>
</svg>
