<?xml version="1.0" encoding="utf-8"?>
<!-- Generator: Adobe Illustrator 17.1.0, SVG Export Plug-In . SVG Version: 6.00 Build 0)  -->
<!DOCTYPE svg PUBLIC "-//W3C//DTD SVG 1.1//EN" "http://www.w3.org/Graphics/SVG/1.1/DTD/svg11.dtd">
<svg version="1.1" id="Layer_1" xmlns="http://www.w3.org/2000/svg" xmlns:xlink="http://www.w3.org/1999/xlink" x="0px" y="0px"
	 viewBox="0 0 95.3 99.9" enable-background="new 0 0 95.3 99.9" xml:space="preserve">
<path fill="#989898" d="M4.6,9.2c0-3.1,2.5-5.6,5.6-5.6h66.7c3.1,0,5.6,2.5,5.6,5.6v81.5c0,3.1-2.5,5.6-5.6,5.6H10.1
	c-3.1,0-5.6-2.5-5.6-5.6V9.2z M0.9,90.7c0,5.1,4.2,9.3,9.3,9.3h66.7c5.1,0,9.3-4.2,9.3-9.3v-5.6h3.7c3.1,0,5.6-2.5,5.6-5.6V64.7
	c0-1.4-0.6-2.7-1.4-3.7c0.9-1,1.4-2.3,1.4-3.7V42.5c0-1.4-0.6-2.7-1.4-3.7c0.9-1,1.4-2.3,1.4-3.7V20.3c0-3.1-2.5-5.6-5.6-5.6h-3.7
	V9.2c0-5.1-4.2-9.3-9.3-9.3H10.1C5-0.1,0.9,4.1,0.9,9.2V90.7z M89.8,18.4c1,0,1.9,0.8,1.9,1.9v14.8c0,1-0.8,1.9-1.9,1.9h-3.7V18.4
	H89.8z M91.6,42.5v14.8c0,1-0.8,1.9-1.9,1.9h-3.7V40.7h3.7C90.8,40.7,91.6,41.5,91.6,42.5z M91.6,79.5c0,1-0.8,1.9-1.9,1.9h-3.7
	V62.9h3.7c1,0,1.9,0.8,1.9,1.9V79.5z M48.7,38.8c-3.2-0.9-10.3-1-13.9,5.1c-2,3.4-2.5,6.9-1.6,9.8c0.8,2.3,2.4,4.1,4.7,5
	c1.7,0.7,3.7,0.6,5.5-0.4c1.6-0.9,3-2.4,4.1-4.2c0.3,0.5,0.6,1.1,1,1.5c1.7,2.1,4.9,3.1,7.7,2.5c2-0.5,5.7-2.2,7.2-8.9
	c1.2-5.2,0-10.2-3.4-14c-4.3-4.8-11.7-7.1-19.2-6C34.9,30,29.9,33,26.7,37.7c-3.5,5.2-4.5,11.9-2.8,18.6c1.7,6.9,7.2,12,14.6,13.9
	c1.8,0.4,3.6,0.7,5.4,0.7c6,0,11.8-2.4,15.7-6.9c0.7-0.8,0.6-1.9-0.1-2.6c-0.8-0.7-1.9-0.6-2.6,0.1c-4.3,4.8-11,6.7-17.5,5.1
	c-6.1-1.5-10.5-5.7-11.9-11.2c-1.4-5.7-0.6-11.4,2.3-15.6c2.6-3.8,6.6-6.2,11.5-6.9c6.3-0.9,12.4,1,15.9,4.9
	c2.7,2.9,3.6,6.6,2.6,10.7c-0.8,3.5-2.4,5.6-4.5,6.1c-1.6,0.4-3.2-0.3-4-1.2c-2.6-3.1-1.8-9.9-1.3-12.3c0,0,0.1-0.5-0.2-1.3
	C49.5,39.1,48.7,38.8,48.7,38.8z M45.5,48.8c-0.4,2.7-2.1,5.3-3.9,6.3c-0.8,0.5-1.6,0.5-2.3,0.2c-1.2-0.5-2.1-1.5-2.6-2.8
	c-0.6-1.9-0.2-4.3,1.2-6.7c1.8-3.1,4.9-3.8,7.1-3.8c0.4,0,0.7,0,1,0C46.1,42.1,45.7,47.2,45.5,48.8z"/>
<g>
	<line fill="none" stroke="#000000" stroke-width="0.3" x1="0.9" y1="-54.1" x2="0.9" y2="-18.1"/>
	<line fill="none" stroke="#000000" stroke-width="0.3" x1="-53.1" y1="-0.1" x2="-17.1" y2="-0.1"/>
	<line fill="none" stroke="#000000" stroke-width="0.3" x1="-53.1" y1="99.9" x2="-17.1" y2="99.9"/>
	<line fill="none" stroke="#000000" stroke-width="0.3" x1="0.9" y1="153.9" x2="0.9" y2="117.9"/>
	<line fill="none" stroke="#000000" stroke-width="0.3" x1="95.3" y1="-54.1" x2="95.3" y2="-18.1"/>
	<line fill="none" stroke="#000000" stroke-width="0.3" x1="149.3" y1="-0.1" x2="113.3" y2="-0.1"/>
	<line fill="none" stroke="#000000" stroke-width="0.3" x1="149.3" y1="99.9" x2="113.3" y2="99.9"/>
	<line fill="none" stroke="#000000" stroke-width="0.3" x1="95.3" y1="153.9" x2="95.3" y2="117.9"/>
</g>
</svg>
