<?xml version="1.0" encoding="utf-8"?>
<!-- Generator: Adobe Illustrator 17.1.0, SVG Export Plug-In . SVG Version: 6.00 Build 0)  -->
<!DOCTYPE svg PUBLIC "-//W3C//DTD SVG 1.1//EN" "http://www.w3.org/Graphics/SVG/1.1/DTD/svg11.dtd">
<svg version="1.1" id="Layer_1" xmlns="http://www.w3.org/2000/svg" xmlns:xlink="http://www.w3.org/1999/xlink" x="0px" y="0px"
	 viewBox="0 0 66.5 46.5" enable-background="new 0 0 66.5 46.5" xml:space="preserve">
<g>
	<defs>
		<rect id="SVGID_1_" width="66.5" height="46.5"/>
	</defs>
	<path clip-path="url(#SVGID_1_)" d="M51.2,16H35.5v-1.5h11.8c1.2,0,2.2-1,2.2-2.2v-7c0-1.2-1-2.2-2.2-2.2h-7.8V2.3
		c0-1.2-1-2.2-2.2-2.2C36,0,35,1,35,2.3v3c0,1.2,1,2.2,2.2,2.2H45V10H33.2C32,10,31,11,31,12.3V16H15.2C6.8,16,0,22.8,0,31.3
		s6.8,15.2,15.2,15.2c4.8,0,9.2-2.2,12.1-6h11.8c2.9,3.8,7.3,6,12.1,6c8.4,0,15.2-6.8,15.2-15.2S59.7,16,51.2,16 M51.2,42
		c-3.7,0-7.1-1.9-9.1-5c-0.4-0.6-1.1-1-1.9-1H26.2c-0.8,0-1.5,0.4-1.9,1c-2,3.1-5.4,5-9,5C9.3,42,4.5,37.2,4.5,31.3
		s4.8-10.8,10.8-10.8h36c5.9,0,10.8,4.8,10.8,10.8S57.2,42,51.2,42 M23.2,31.3c0,0.9-0.7,1.6-1.6,1.6h-4.7v4.7
		c0,0.9-0.7,1.6-1.6,1.6s-1.6-0.7-1.6-1.6v-4.7H9c-0.9,0-1.6-0.7-1.6-1.6c0-0.9,0.7-1.6,1.6-1.6h4.7V25c0-0.9,0.7-1.6,1.6-1.6
		s1.6,0.7,1.6,1.6v4.7h4.7C22.4,29.6,23.2,30.4,23.2,31.3 M51.2,23.3c-4.4,0-7.9,3.6-7.9,7.9c0,0,0,0,0,0c0,0,0,0,0,0c0,0,0,0,0,0
		c0,4.3,3.5,7.8,7.7,7.9c0.1,0,0.1,0,0.2,0c0.1,0,0.1,0,0.2,0c4.3-0.1,7.7-3.6,7.7-7.9c0,0,0,0,0,0c0,0,0,0,0,0c0,0,0,0,0,0
		C59.2,26.9,55.6,23.3,51.2,23.3 M55.6,29.6h-2.7v-2.8C54.1,27.3,55.1,28.4,55.6,29.6 M49.6,26.9v2.8h-2.7
		C47.4,28.4,48.4,27.3,49.6,26.9 M46.9,32.9h2.7v2.7C48.4,35.1,47.4,34.1,46.9,32.9 M52.9,35.6v-2.7h2.7
		C55.1,34.1,54.1,35.1,52.9,35.6"/>
</g>
</svg>
