<?xml version="1.0" encoding="utf-8"?>
<!-- Generator: Adobe Illustrator 17.1.0, SVG Export Plug-In . SVG Version: 6.00 Build 0)  -->
<!DOCTYPE svg PUBLIC "-//W3C//DTD SVG 1.1//EN" "http://www.w3.org/Graphics/SVG/1.1/DTD/svg11.dtd">
<svg version="1.1" id="Layer_1" xmlns="http://www.w3.org/2000/svg" xmlns:xlink="http://www.w3.org/1999/xlink" x="0px" y="0px"
	 viewBox="0 0 66.7 66.7" enable-background="new 0 0 66.7 66.7" xml:space="preserve">
<path d="M57,9.8C50.7,3.5,42.3,0,33.4,0C24.5,0,16.1,3.5,9.8,9.8C3.5,16.1,0,24.5,0,33.4C0,42.3,3.5,50.7,9.8,57
	c6.3,6.3,14.7,9.8,23.6,9.8c0,0,0,0,0,0l0-2.2v2.2c8.9,0,17.3-3.5,23.6-9.8c6.3-6.3,9.8-14.7,9.8-23.6C66.7,24.5,63.3,16.1,57,9.8z
	 M53.8,53.8c-5.5,5.5-12.7,8.5-20.4,8.5h0c-7.7,0-15-3-20.4-8.5S4.5,41.1,4.5,33.4c0-7.7,3-15,8.5-20.4c5.5-5.5,12.7-8.5,20.4-8.5
	c7.7,0,15,3,20.4,8.5c5.5,5.5,8.5,12.7,8.5,20.4C62.2,41.1,59.2,48.3,53.8,53.8z M57.6,33.4c0,1.2-1,2.2-2.2,2.2s-2.2-1-2.2-2.2
	c0-5.3-2.1-10.2-5.8-14s-8.7-5.8-14-5.8c-5.3,0-10.2,2.1-14,5.8c-3.7,3.7-5.8,8.7-5.8,14c0,1.2-1,2.2-2.2,2.2s-2.2-1-2.2-2.2
	c0-6.5,2.5-12.6,7.1-17.1c4.6-4.6,10.7-7.1,17.1-7.1c6.5,0,12.6,2.5,17.1,7.1C55.1,20.8,57.6,26.9,57.6,33.4z M33.4,32.1
	c-0.3,0-0.6,0-0.9,0.1l-5.4-6.3c-0.8-0.9-2.2-1-3.2-0.2c-0.9,0.8-1,2.2-0.2,3.2l5.6,6.5c-0.1,0.3-0.1,0.7-0.1,1.1
	c0,1.1,0.5,2.2,1.3,3c0.8,0.8,1.9,1.2,3,1.2c1.1,0,2.2-0.4,3-1.3c0.8-0.8,1.2-1.9,1.2-3c0-1.1-0.5-2.2-1.3-3
	C35.6,32.6,34.5,32.1,33.4,32.1z"/>
</svg>
