<?xml version="1.0" encoding="utf-8"?>
<!-- Generator: Adobe Illustrator 17.1.0, SVG Export Plug-In . SVG Version: 6.00 Build 0)  -->
<!DOCTYPE svg PUBLIC "-//W3C//DTD SVG 1.1//EN" "http://www.w3.org/Graphics/SVG/1.1/DTD/svg11.dtd">
<svg version="1.1" id="Layer_1" xmlns="http://www.w3.org/2000/svg" xmlns:xlink="http://www.w3.org/1999/xlink" x="0px" y="0px"
	 viewBox="0 0 101.4 100" enable-background="new 0 0 101.4 100" xml:space="preserve">
<path fill="#989898" d="M101.3,82.7c-0.3-1.8-1.5-3.4-3.6-4.9L75.3,62.5c-1.2-0.8-2.5-1.2-3.9-1.2c-2.2,0-4.2,1-5.4,2.7l-5.8,8.2
	c-0.5,0.6-0.6,1.4-0.6,2.2C57.4,74.8,51,74.6,40.4,64C30.2,53.8,25.3,46.3,26,41.7c0.1-0.1,0.2-0.2,0.3-0.2c0.5-0.1,1-0.3,1.4-0.6
	l8-6.1c2.9-2.2,3.4-6.4,1.2-9.4l-16-21.9c-3.1-4.2-6.7-4.6-10.6-1.3C7.9,4.3,3.8,9.4,2.1,12.5c-0.9,1.6-1.3,3.3-1.1,5
	C0.3,20-1,27.2,1.2,37.3C4.1,51,12,64.2,24.7,76.5c21.2,20.5,39.8,23.5,49,23.5c0,0,0,0,0,0c5.4,0,9.2-1,10.9-1.7
	c1.6,0.1,3.2-0.4,4.8-1.3c3-1.8,8-6,10-8.6C100.9,86.4,101.6,84.6,101.3,82.7z M80.5,95.5c-1.7,0.4-4,0.7-6.9,0.7c0,0,0,0,0,0
	c-8.6,0-26.1-2.9-46.3-22.5C-1.5,45.8,4,20.9,4.7,18.1c0.1-0.2,0.1-0.5,0-0.8c-0.1-1,0.1-2,0.7-3c1.5-2.7,5.3-7.4,7.4-9.2
	c1-0.8,1.8-1.3,2.5-1.3c0.3,0,1.2,0,2.6,1.9l16,21.8c1,1.3,0.8,3.2-0.5,4.1l-7.9,6c0,0-0.1,0-0.1,0l-3,2.5
	c-1.5,6.2,3.3,14.4,15.3,26.4c9.6,9.6,16.6,11.6,20.8,11.6c1.8,0,3.2-0.4,3.9-0.8c0.5-0.3,0.8-0.8,0.9-1.4c0-0.3,0.1-0.6,0.1-1
	c0-0.2,0-0.6,0-0.8l5.7-8c0.9-1.2,2.8-1.5,4.1-0.6l22.4,15.3c1.2,0.8,1.9,1.6,2,2.3c0.1,0.7-0.3,1.6-1.2,2.7c-1.7,2.2-6.4,6.1-9,7.7
	c-0.4,0.2-0.7,0.4-1.1,0.5c0,0-1.6,0.5-2.8,0.8C82.8,95.2,80.5,95.5,80.5,95.5z"/>
</svg>
