<?xml version="1.0" encoding="utf-8"?>
<!-- Generator: Adobe Illustrator 17.1.0, SVG Export Plug-In . SVG Version: 6.00 Build 0)  -->
<!DOCTYPE svg PUBLIC "-//W3C//DTD SVG 1.1//EN" "http://www.w3.org/Graphics/SVG/1.1/DTD/svg11.dtd">
<svg version="1.1" id="Layer_1" xmlns="http://www.w3.org/2000/svg" xmlns:xlink="http://www.w3.org/1999/xlink" x="0px" y="0px"
	 viewBox="0 0 72.5 100" enable-background="new 0 0 72.5 100" xml:space="preserve">
<path d="M36.3,0C16.3,0,0,16.2,0,36c0,5.4,1.2,10.6,3.5,15.4C14.2,76.1,34,98.4,34.8,99.3c0.4,0.5,1,0.7,1.6,0.7
	c0.6,0,1.2-0.3,1.6-0.7c0.8-0.9,20.3-23.2,31-47.8c2.3-4.9,3.5-10.1,3.5-15.5C72.5,16.2,56.2,0,36.3,0z M65.1,49.7
	c-8.7,20-23.8,39-28.7,44.9c-5-5.9-20.3-24.8-29-44.9c-2-4.2-3.1-8.8-3.1-13.6c0-17.5,14.4-31.8,32-31.8c17.6,0,32,14.3,32,31.8
	C68.3,40.7,67.2,45.3,65.1,49.7z M36.3,22.8c-9.4,0-17.1,7.7-17.1,17.1c0,9.4,7.7,17.1,17.1,17.1c9.4,0,17.1-7.7,17.1-17.1
	C53.3,30.5,45.7,22.8,36.3,22.8z M36.3,52.7c-7.1,0-12.8-5.7-12.8-12.8c0-7.1,5.7-12.8,12.8-12.8c7.1,0,12.8,5.7,12.8,12.8
	C49.1,46.9,43.3,52.7,36.3,52.7z"/>
</svg>
