<?xml version="1.0" encoding="utf-8"?>
<!-- Generator: Adobe Illustrator 17.1.0, SVG Export Plug-In . SVG Version: 6.00 Build 0)  -->
<!DOCTYPE svg PUBLIC "-//W3C//DTD SVG 1.1//EN" "http://www.w3.org/Graphics/SVG/1.1/DTD/svg11.dtd">
<svg version="1.1" id="Layer_1" xmlns="http://www.w3.org/2000/svg" xmlns:xlink="http://www.w3.org/1999/xlink" x="0px" y="0px"
	 viewBox="0 0 34.5 67.5" enable-background="new 0 0 34.5 67.5" xml:space="preserve">
<path d="M34.5,17.2C34.5,7.7,26.8,0,17.2,0S0,7.7,0,17.2c0,8.7,6.6,16,15,17.1v30.9c0,1.2,1,2.2,2.2,2.2c1.2,0,2.2-1,2.2-2.2V34.3
	C27.9,33.2,34.5,26,34.5,17.2z M17.2,30c-7,0-12.8-5.7-12.8-12.8S10.2,4.5,17.2,4.5S30,10.2,30,17.2S24.3,30,17.2,30z M18.8,7.3
	c0,0.8-0.7,1.5-1.5,1.5c-4.6,0-8.4,3.8-8.4,8.4c0,0.8-0.7,1.5-1.5,1.5s-1.5-0.7-1.5-1.5C5.8,11,11,5.8,17.2,5.8
	C18.1,5.8,18.8,6.5,18.8,7.3z"/>
</svg>
