<?xml version="1.0" encoding="utf-8"?>
<!-- Generator: Adobe Illustrator 17.1.0, SVG Export Plug-In . SVG Version: 6.00 Build 0)  -->
<!DOCTYPE svg PUBLIC "-//W3C//DTD SVG 1.1//EN" "http://www.w3.org/Graphics/SVG/1.1/DTD/svg11.dtd">
<svg version="1.1" id="Layer_1" xmlns="http://www.w3.org/2000/svg" xmlns:xlink="http://www.w3.org/1999/xlink" x="0px" y="0px"
	 viewBox="261.8 360.6 88.4 70.8" enable-background="new 261.8 360.6 88.4 70.8" xml:space="preserve">
<path d="M292.9,360.6c2.1,0,4.1,0.6,5.8,1.8c1.7,1.2,2.5,2.5,2.5,4c0,0.9-0.5,1.9-1.7,3.1c-3.9,3.9-6.6,7.1-8.1,9.7
	c-1.5,2.6-2.3,5.3-2.3,8c0,1.9,1,3.7,3,5.2c3.9,3,6.6,5.9,8.2,8.6c1.5,2.8,2.3,6,2.3,9.8c0,5.9-1.9,10.7-5.7,14.7
	c-3.8,3.9-8.5,5.9-14.2,5.9c-6.4,0-11.6-2.5-15.6-7.4c-3.6-4.4-5.4-9.6-5.4-15.7c0-14.4,7-28.6,20.9-42.3
	C286.1,362.5,289.5,360.7,292.9,360.6z M340.5,360.6c2.1,0,4.1,0.6,5.8,1.8c1.7,1.2,2.5,2.5,2.5,4c0,0.9-0.6,1.9-1.8,3.1
	c-3.8,3.9-6.5,7.1-8,9.7c-1.5,2.6-2.3,5.3-2.3,8c0,1.9,1,3.7,3,5.2c3.9,3,6.6,5.9,8.2,8.6c1.5,2.8,2.3,6,2.3,9.8
	c0,5.9-1.9,10.7-5.7,14.7c-3.8,3.9-8.5,5.9-14.2,5.9c-6.4,0-11.6-2.5-15.6-7.4c-3.6-4.4-5.4-9.6-5.4-15.7c0-14.4,7-28.6,20.9-42.3
	C333.7,362.5,337.1,360.7,340.5,360.6z"/>
</svg>
