<?xml version="1.0" encoding="utf-8"?>
<!-- Generator: Adobe Illustrator 17.1.0, SVG Export Plug-In . SVG Version: 6.00 Build 0)  -->
<!DOCTYPE svg PUBLIC "-//W3C//DTD SVG 1.1//EN" "http://www.w3.org/Graphics/SVG/1.1/DTD/svg11.dtd">
<svg version="1.1" id="Layer_1" xmlns="http://www.w3.org/2000/svg" xmlns:xlink="http://www.w3.org/1999/xlink" x="0px" y="0px"
	 viewBox="261.7 360.7 88.4 70.7" enable-background="new 261.7 360.7 88.4 70.7" xml:space="preserve">
<path d="M281.6,360.7c6.4,0,11.6,2.5,15.6,7.4c3.6,4.4,5.4,9.6,5.4,15.7c0,7.1-1.8,14.4-5.5,21.8
	c-3.7,7.4-8.8,14.3-15.4,20.5c-3.7,3.4-7,5.1-10.3,5.1c-2.1,0-4.1-0.6-5.8-1.8c-1.7-1.1-2.5-2.5-2.5-4c0-0.9,0.6-1.9,1.8-3.1
	c3.8-4,6.5-7.2,8-9.8c1.5-2.6,2.3-5.3,2.3-8c0-1.9-1-3.6-3.1-5.1c-3.8-3-6.4-5.9-8-8.6c-1.6-2.8-2.4-6-2.4-9.8
	c0-5.9,1.8-10.8,5.6-14.7C271.1,362.7,275.8,360.8,281.6,360.7z M329.2,360.7c6.4,0,11.6,2.5,15.6,7.4c3.6,4.4,5.4,9.6,5.4,15.6
	c0,7.2-1.8,14.5-5.4,22c-3.7,7.4-8.7,14.3-15.3,20.5c-3.7,3.4-7,5.1-10.3,5.1c-2.1,0-4.1-0.6-5.8-1.8c-1.7-1.1-2.5-2.5-2.5-4
	c0-0.9,0.5-1.9,1.7-3.1c3.9-4,6.6-7.3,8-9.9c1.5-2.6,2.2-5.2,2.2-7.9c0-1.9-1-3.6-3.1-5.1c-3.8-2.9-6.4-5.8-8-8.6
	c-1.6-2.8-2.4-6-2.4-9.8c0-5.9,1.8-10.8,5.6-14.7C318.6,362.7,323.4,360.8,329.2,360.7z"/>
</svg>
