<?xml version="1.0" encoding="utf-8"?>
<!-- Generator: Adobe Illustrator 18.0.0, SVG Export Plug-In . SVG Version: 6.00 Build 0)  -->
<!DOCTYPE svg PUBLIC "-//W3C//DTD SVG 1.1//EN" "http://www.w3.org/Graphics/SVG/1.1/DTD/svg11.dtd">
<svg version="1.1" id="Layer_1" xmlns="http://www.w3.org/2000/svg" xmlns:xlink="http://www.w3.org/1999/xlink" x="0px" y="0px"
	 viewBox="0 0 864 864" enable-background="new 0 0 864 864" xml:space="preserve">
<g display="none">
	<path display="inline" fill="#FF0000" stroke="#FF0000" stroke-width="8" stroke-miterlimit="10" d="M762,127.9
		c-0.9-4.3-4.3-6.9-8.6-8.6c-1.7,0-33.7-10.4-79.5-10.4c-44.9,0-111.5,10.4-170.2,57.9c-71.7,59.6-104.5,121-123.6,168.5
		c-11.2-3.5-22.5-5.2-33.7-5.2c-27.6,0-52.7,10.4-71.7,28.5L188.4,445c-3.5,3.5-5.2,9.5-2.6,14.7c1.7,4.3,6.9,7.8,12.1,7.8h0.9
		L344,455.4c-9.5,42.3-17.3,82.1-17.3,84.7c-0.9,4.3,0.9,8.6,3.5,11.2c2.6,2.6,6,3.5,9.5,3.5c0.9,0,1.7,0,2.6,0
		c2.6-0.9,41.5-7.8,83.8-18.1l-12.1,146c-0.9,5.2,2.6,10.4,7.8,13c1.7,0.9,3.5,0.9,5.2,0.9c3.5,0,6.9-1.7,9.5-3.5l86.4-86.4
		c28.5-28.5,34.6-69.1,24.2-105.4c47.5-19,108.9-51.8,167.6-124.4C804.4,267.8,763.8,133.1,762,127.9z M231.6,438.9l61.3-61.3
		c17.3-17.3,38.9-21.6,53.6-21.6c7.8,0,16.4,0.9,24.2,3.5c-1.7,5.2-3.5,9.5-5.2,13.8c-5.2,15.6-10.4,35.4-15.6,56.2L231.6,438.9z
		 M355.1,526.2c3.5-16.4,8.6-40.6,14.7-66.5l51.8,51.8C395.7,517.5,371.5,522.7,355.1,526.2z M503.7,588.4l-61.3,61.3l9.5-118.4
		c20.7-5.2,40.6-10.4,56.2-16.4c4.3-1.7,8.6-3.5,13.8-5.2C528.8,537.4,525.3,566.8,503.7,588.4z M694.7,360.3
		c-72.6,88.1-149.5,114.9-195.3,130.5c-17.3,6-39.7,12.1-63.1,17.3L373.2,445c5.2-23.3,12.1-46.7,17.3-63.1
		c15.6-45.8,42.3-122.7,130.5-195.3c52.7-43.2,112.3-51.8,153.8-51.8c30.2,0,53.6,4.3,64.8,6.9C745.6,169.3,764.6,275.6,694.7,360.3
		z"/>
	<path display="inline" fill="#FF0000" stroke="#FF0000" stroke-width="5" stroke-miterlimit="10" d="M608.3,209.1
		c-17.3,0-32.8,6.9-44.9,19c-25.1,25.1-25.1,64.8,0,89.9c12.1,12.1,27.6,19,44.9,19c17.3,0,32.8-6.9,44.9-19
		c25.1-25.1,25.1-64.8,0-89.9C641.1,216,625.5,209.1,608.3,209.1z M641.1,305.9c-8.6,8.6-20.7,13.8-32.8,13.8s-24.2-5.2-32.8-13.8
		c-18.1-18.1-18.1-47.5,0-65.7c8.6-8.6,20.7-13.8,32.8-13.8s24.2,5.2,32.8,13.8c2.6,2.6,5.2,6,6.9,9.5h-49.2c-2.6,0-4.3,1.7-4.3,4.3
		s1.7,4.3,4.3,4.3h52.7C657.5,273.9,654,292.9,641.1,305.9z"/>
	<path display="inline" fill="#FF0000" stroke="#FF0000" stroke-width="5" stroke-miterlimit="10" d="M631.6,265.2h-48.4
		c-2.6,0-4.3,1.7-4.3,4.3c0,2.6,1.7,4.3,4.3,4.3h48.4c2.6,0,4.3-1.7,4.3-4.3C635.9,267.8,633.3,265.2,631.6,265.2z"/>
	<path display="inline" fill="#FF0000" stroke="#FF0000" stroke-width="8" stroke-miterlimit="10" d="M225.5,735.3
		c-4.3,4.3-4.3,12.1,0,16.4c4.3,4.3,12.1,4.3,16.4,0c4.3-4.3,4.3-12.1,0-16.4C237.6,730.9,230.7,730.9,225.5,735.3z"/>
	
		<circle display="inline" fill="#FF0000" stroke="#FF0000" stroke-width="8" stroke-miterlimit="10" cx="102.8" cy="681.7" r="11.2"/>
	
		<circle display="inline" fill="#FF0000" stroke="#FF0000" stroke-width="8" stroke-miterlimit="10" cx="151.2" cy="698.1" r="11.2"/>
	
		<circle display="inline" fill="#FF0000" stroke="#FF0000" stroke-width="8" stroke-miterlimit="10" cx="230.7" cy="683.4" r="11.2"/>
	<path display="inline" fill="#FF0000" stroke="#FF0000" stroke-width="8" stroke-miterlimit="10" d="M309.3,649.7l-57,57
		c-5.2,5.2-5.2,13,0,18.1c2.6,2.6,6,3.5,9.5,3.5s6.9-0.9,9.5-3.5l57-57c5.2-5.2,5.2-13,0-18.1S314.5,644.5,309.3,649.7z"/>
	<path display="inline" fill="#FF0000" stroke="#FF0000" stroke-width="8" stroke-miterlimit="10" d="M287.7,607.4L248,647.1
		c-5.2,5.2-5.2,13,0,18.1c2.6,2.6,6,3.5,9.5,3.5s6.9-0.9,9.5-3.5l39.7-39.7c5.2-5.2,5.2-13,0-18.1
		C301.5,602.2,292.9,602.2,287.7,607.4z"/>
	<path display="inline" fill="#FF0000" stroke="#FF0000" stroke-width="8" stroke-miterlimit="10" d="M298.1,551.2
		c-5.2-5.2-13-5.2-18.1,0L169.3,661c-5.2,5.2-5.2,13,0,18.1c2.6,2.6,6,3.5,9.5,3.5s6.9-0.9,9.5-3.5L298,569.4
		C303.3,564.2,303.3,556.4,298.1,551.2z"/>
	<path display="inline" fill="#FF0000" stroke="#FF0000" stroke-width="8" stroke-miterlimit="10" d="M213.4,571.1
		c-5.2-5.2-13-5.2-18.1,0L121,645.4c-5.2,5.2-5.2,13,0,18.1c2.6,2.6,6,3.5,9.5,3.5s6.9-0.9,9.5-3.5l74.3-74.3
		C218.6,584.9,218.6,576.3,213.4,571.1z"/>
</g>
<path d="M427,700.6c-1.9,0-4.5,0-7.1-1.4c-7-3.5-11-10.3-9.9-17l11.6-140.3c-27.2,6.5-52.6,11.5-66.6,14.3
	c-5.7,1.1-10.6,2.1-11.5,2.4l-0.6,0.2l-0.6,0h-2.6c-5.1,0-9.2-1.6-12.3-4.7c-3-3-5.8-8.5-4.6-14.6c0.6-6,8.2-43.6,16.2-79.7
	L199,471.5h-1.1c-6.6,0-13.4-4.4-15.8-10.2c-3-6.2-1.6-14.1,3.4-19.2l86.3-86.4c20.1-19.2,46.6-29.7,74.5-29.7
	c10.5,0,21.1,1.5,31.4,4.3c17.5-42.8,49.5-105.3,123.4-166.7c60.1-48.6,127.1-58.8,172.8-58.8c38.9,0,67.8,7.4,77.4,9.8
	c1,0.2,2,0.5,2.4,0.6h0.5l0.7,0.3c6.2,2.4,9.9,6.2,11,11.3c2.2,7,42.7,142.2-48.1,252.6c-60.4,74.7-123,106.8-165.9,124.2
	c10.2,39.8,0.6,79.1-26.2,105.8l-86.7,86.7l-0.3,0.2C434.7,699.2,430.8,700.6,427,700.6z M455.7,534.5l-8.4,104.7l53.6-53.6
	c17.6-17.6,24-42.5,18.1-70.6c-2.5,0.9-4.8,1.8-7.1,2.8l-2.3,0.9C494.3,524.5,474.7,529.7,455.7,534.5z M372.1,467.6
	c-4.7,20.2-8.7,39-11.8,53.4c15.9-3.4,34-7.3,53.4-11.8L372.1,467.6z M377.6,443.7l60,60c22.8-5.1,44.2-11,60.5-16.7
	c21-7.1,52.6-17.9,86.9-37.7c40.1-23.2,75-53.1,106.6-91.5c63.6-77,52.9-172.6,44.6-212.7c-11.7-2.6-33.4-6.2-61.4-6.2
	c-59.2,0-110.1,17.1-151.3,50.9c-88,72.5-113.8,148.2-129.2,193.5C389.5,398.2,382.8,420.8,377.6,443.7z M346.5,360
	c-11.3,0-33,2.7-50.8,20.4l-53.6,53.6l104.6-8.3c4.5-18,9.8-38,15-53.7l0.1-0.2l0.9-2.3c0.9-2.4,1.9-4.8,2.8-7.3
	C359.9,360.7,353.4,360,346.5,360z M608.3,339.5c-17.6,0-33.8-6.8-46.7-19.7c-12.6-12.6-19.6-29.2-19.6-46.7
	c0-17.5,6.9-34.1,19.6-46.7c12.9-12.9,29-19.7,46.7-19.7s33.8,6.8,46.7,19.7c26.2,26.2,26.2,67.2,0,93.4
	C642.1,332.7,625.9,339.5,608.3,339.5z M608.3,228.9c-11.2,0-22.8,4.9-31,13.1c-17.1,17.2-17.1,45.1,0,62.2
	c8.2,8.2,19.8,13.1,31,13.1s22.8-4.9,31-13.1c11.5-11.5,15.5-28.4,10.4-43.3h-50.9c-4,0-6.8-2.8-6.8-6.8s2.8-6.8,6.8-6.8h44.9
	c-1.2-1.8-2.7-3.6-4.3-5.2C631.1,233.8,619.5,228.9,608.3,228.9z M631.6,276.3h-48.4c-4,0-6.8-2.8-6.8-6.8s2.8-6.8,6.8-6.8h48.4
	c3.1,0,6.8,3.7,6.8,6.8C638.4,273.5,635.6,276.3,631.6,276.3z M233.7,758.9c-4.2,0-8.2-1.6-11-4.4c-5.9-5.9-5.9-16.2,0-22.1l0.2-0.2
	c3.2-2.7,7.2-4.2,11.1-4.2c4.1,0,7.9,1.6,10.7,4.5c2.8,2.8,4.4,6.8,4.4,11s-1.6,8.2-4.4,11C241.9,757.3,237.9,758.9,233.7,758.9z
	 M102.8,696.9c-8.4,0-15.2-6.8-15.2-15.2s6.8-15.2,15.2-15.2s15.2,6.8,15.2,15.2S111.2,696.9,102.8,696.9z M151.2,713.3
	c-8.4,0-15.2-6.8-15.2-15.2c0-8.4,6.8-15.2,15.2-15.2s15.2,6.8,15.2,15.2C166.4,706.5,159.6,713.3,151.2,713.3z M230.7,698.6
	c-8.4,0-15.2-6.8-15.2-15.2c0-8.4,6.8-15.2,15.2-15.2s15.2,6.8,15.2,15.2C245.9,691.8,239.1,698.6,230.7,698.6z M261.8,732.3
	c-5.1,0-9.2-1.6-12.3-4.7c-3.2-3.2-5-7.4-5.1-11.8c0-4.4,1.8-8.7,5.1-12l57-57c3.2-3.2,7.6-5,12.3-5c4.7,0,9.1,1.8,12.4,5
	c3.3,3.2,5.1,7.4,5.1,11.8c0,4.4-1.8,8.7-5.1,12l-57,57C271,730.7,266.9,732.3,261.8,732.3z M178.8,686.6c-5.1,0-9.2-1.6-12.3-4.7
	c-3.2-3.2-5-7.4-5.1-11.8c0-4.4,1.8-8.7,5.1-12l110.7-109.8c3.2-3.2,7.4-5.1,11.8-5.1c4.4,0,8.6,1.8,11.9,5.1
	c3.3,3.3,5.1,7.5,5.1,12c0,4.4-1.9,8.7-5.2,11.9L191.1,681.9C188,685,183.9,686.6,178.8,686.6z M257.5,672.7
	c-5.1,0-9.2-1.6-12.3-4.7c-3.2-3.2-5.1-7.4-5.1-11.8c0-4.4,1.8-8.7,5.1-12l39.7-39.7c3.3-3.3,7.6-5.1,12.3-5.1s9.1,1.8,12.3,5.1
	c3.2,3.2,5,7.4,5.1,11.8c0,4.4-1.8,8.7-5.1,12L269.8,668C266.7,671.1,262.6,672.7,257.5,672.7z M130.5,671c-5.1,0-9.2-1.6-12.3-4.7
	c-3.2-3.2-5.1-7.4-5.1-11.8c0-4.4,1.8-8.7,5.1-12l74.3-74.3c3.2-3.3,7.4-5.1,11.8-5.1c4.4,0,8.6,1.8,11.9,5.1
	c3.2,3.2,5,7.5,5.2,12.1c0.2,4.5-1.4,8.8-4.3,11.7l-74.3,74.3C139.7,669.4,135.6,671,130.5,671z"/>
</svg>
