<?xml version="1.0" encoding="utf-8"?>
<!-- Generator: Adobe Illustrator 17.1.0, SVG Export Plug-In . SVG Version: 6.00 Build 0)  -->
<!DOCTYPE svg PUBLIC "-//W3C//DTD SVG 1.1//EN" "http://www.w3.org/Graphics/SVG/1.1/DTD/svg11.dtd">
<svg version="1.1" id="Layer_1" xmlns="http://www.w3.org/2000/svg" xmlns:xlink="http://www.w3.org/1999/xlink" x="0px" y="0px"
	 viewBox="0 0 60.5 66.5" enable-background="new 0 0 60.5 66.5" xml:space="preserve">
<path d="M60.5,36.2L60.5,36.2c0-8.1-3.1-15.7-8.9-21.4c-5.2-5.2-11.9-8.2-19.1-8.8V4.5h3.8c1.2,0,2.2-1,2.2-2.2S37.5,0,36.2,0h-6H28
	h-3.8C23,0,22,1,22,2.2s1,2.2,2.2,2.2H28v1.6c-7.2,0.5-14,3.6-19.1,8.8C3.1,20.6,0,28.2,0,36.2v0v0l0,0c0,8.1,3.1,15.7,8.9,21.4
	c5.7,5.7,13.3,8.9,21.4,8.9h0h0h0c8.1,0,15.7-3.1,21.4-8.9C57.4,51.9,60.5,44.3,60.5,36.2L60.5,36.2L60.5,36.2z M50,52.8l-3.5-3.5
	c-0.9-0.9-2.3-0.9-3.2,0s-0.9,2.3,0,3.2l3.5,3.5c-4.1,3.4-9,5.5-14.3,5.9v-1.6c0-1.2-1-2.2-2.2-2.2C29,58,28,59,28,60.2v1.6
	c-5.3-0.5-10.2-2.5-14.3-5.9l3.5-3.5c0.9-0.9,0.9-2.3,0-3.2c-0.9-0.9-2.3-0.9-3.2,0l-3.5,3.5c-3.4-4.1-5.5-9-5.9-14.3h1.6
	c1.2,0,2.2-1,2.2-2.2S7.5,34,6.2,34H4.6c0.5-5.3,2.5-10.2,5.9-14.3l3.5,3.5c0.4,0.4,1,0.7,1.6,0.7c0.6,0,1.2-0.2,1.6-0.7
	c0.9-0.9,0.9-2.3,0-3.2l-3.5-3.5c4.1-3.4,9-5.5,14.3-5.9v1.6c0,1.2,1,2.2,2.2,2.2c1.2,0,2.2-1,2.2-2.2v-1.6
	c5.3,0.5,10.2,2.5,14.3,5.9l-3.5,3.5c-0.9,0.9-0.9,2.3,0,3.2c0.4,0.4,1,0.7,1.6,0.7s1.2-0.2,1.6-0.7l3.5-3.5c3.4,4.1,5.5,9,5.9,14.3
	h-1.6C53,34,52,35,52,36.2s1,2.2,2.2,2.2h1.6C55.4,43.8,53.4,48.7,50,52.8z M32.5,31.5c0-0.1,0-0.2,0-0.3v-9c0-1.2-1-2.2-2.2-2.2
	C29,20,28,21,28,22.2v9c0,0.1,0,0.2,0,0.3c-1.8,0.8-3,2.6-3,4.7c0,2.9,2.4,5.2,5.2,5.2c2.9,0,5.2-2.4,5.2-5.2
	C35.5,34.2,34.3,32.4,32.5,31.5z M30.2,37.8c-0.8,0-1.5-0.7-1.5-1.5s0.7-1.5,1.5-1.5s1.5,0.7,1.5,1.5S31.1,37.8,30.2,37.8z"/>
</svg>
